<mxfile host="app.diagrams.net" agent="Mozilla/5.0 (Macintosh; Intel Mac OS X 10_15_7) AppleWebKit/537.36 (KHTML, like Gecko) Chrome/140.0.0.0 Safari/537.36" version="28.2.5">
  <diagram name="Positivos o Negativos (10 números)" id="Q71rAFPMbbPDAgyXanvC">
    <mxGraphModel dx="946" dy="586" grid="1" gridSize="10" guides="1" tooltips="1" connect="1" arrows="1" fold="1" page="1" pageScale="1" pageWidth="827" pageHeight="1169" math="0" shadow="0">
      <root>
        <mxCell id="0" />
        <mxCell id="1" parent="0" />
        <mxCell id="RKgv_uAVDBzMmzX2CUga-26" value="Inicio" style="ellipse;whiteSpace=wrap;html=1;aspect=fixed;" vertex="1" parent="1">
          <mxGeometry x="400" y="10" width="80" height="80" as="geometry" />
        </mxCell>
        <mxCell id="RKgv_uAVDBzMmzX2CUga-27" value="&lt;div&gt;&lt;span style=&quot;background-color: transparent; color: light-dark(rgb(0, 0, 0), rgb(255, 255, 255));&quot;&gt;n, i=1, res : ENTERO&lt;/span&gt;&lt;/div&gt;" style="rounded=1;whiteSpace=wrap;html=1;" vertex="1" parent="1">
          <mxGeometry x="180" y="110" width="160" height="60" as="geometry" />
        </mxCell>
        <mxCell id="RKgv_uAVDBzMmzX2CUga-44" value="" style="edgeStyle=orthogonalEdgeStyle;rounded=0;orthogonalLoop=1;jettySize=auto;html=1;" edge="1" parent="1" source="RKgv_uAVDBzMmzX2CUga-28" target="RKgv_uAVDBzMmzX2CUga-30">
          <mxGeometry relative="1" as="geometry" />
        </mxCell>
        <mxCell id="RKgv_uAVDBzMmzX2CUga-28" value="ESCRIBIR: &quot;Introduce un número entre 0 y 10&quot;&lt;div&gt;LEER: n&lt;/div&gt;" style="shape=parallelogram;perimeter=parallelogramPerimeter;whiteSpace=wrap;html=1;" vertex="1" parent="1">
          <mxGeometry x="350" y="110" width="340" height="60" as="geometry" />
        </mxCell>
        <mxCell id="RKgv_uAVDBzMmzX2CUga-30" value="i &amp;lt;= 10" style="rhombus;whiteSpace=wrap;html=1;" vertex="1" parent="1">
          <mxGeometry x="336" y="240" width="156" height="80" as="geometry" />
        </mxCell>
        <mxCell id="RKgv_uAVDBzMmzX2CUga-31" value="res = n * i" style="rounded=1;whiteSpace=wrap;html=1;" vertex="1" parent="1">
          <mxGeometry x="230" y="350" width="90" height="60" as="geometry" />
        </mxCell>
        <mxCell id="RKgv_uAVDBzMmzX2CUga-32" value="ESCRIBIR: &quot;n x i = res&quot;" style="rounded=1;whiteSpace=wrap;html=1;" vertex="1" parent="1">
          <mxGeometry x="206" y="440" width="144" height="60" as="geometry" />
        </mxCell>
        <mxCell id="RKgv_uAVDBzMmzX2CUga-33" value="i = i + 1" style="rounded=1;whiteSpace=wrap;html=1;" vertex="1" parent="1">
          <mxGeometry x="370" y="450" width="100" height="60" as="geometry" />
        </mxCell>
        <mxCell id="RKgv_uAVDBzMmzX2CUga-34" value="Fin" style="ellipse;whiteSpace=wrap;html=1;aspect=fixed;" vertex="1" parent="1">
          <mxGeometry x="510" y="400" width="80" height="80" as="geometry" />
        </mxCell>
        <mxCell id="RKgv_uAVDBzMmzX2CUga-35" value="" style="endArrow=block;rounded=1;html=1;" edge="1" parent="1" source="RKgv_uAVDBzMmzX2CUga-26" target="RKgv_uAVDBzMmzX2CUga-27">
          <mxGeometry relative="1" as="geometry" />
        </mxCell>
        <mxCell id="RKgv_uAVDBzMmzX2CUga-36" value="" style="endArrow=block;rounded=1;html=1;" edge="1" parent="1" source="RKgv_uAVDBzMmzX2CUga-27" target="RKgv_uAVDBzMmzX2CUga-28">
          <mxGeometry relative="1" as="geometry" />
        </mxCell>
        <mxCell id="RKgv_uAVDBzMmzX2CUga-39" value="Sí" style="endArrow=block;rounded=1;html=1;" edge="1" parent="1" source="RKgv_uAVDBzMmzX2CUga-30" target="RKgv_uAVDBzMmzX2CUga-31">
          <mxGeometry relative="1" as="geometry" />
        </mxCell>
        <mxCell id="RKgv_uAVDBzMmzX2CUga-40" value="No" style="endArrow=block;rounded=1;html=1;" edge="1" parent="1" source="RKgv_uAVDBzMmzX2CUga-30" target="RKgv_uAVDBzMmzX2CUga-34">
          <mxGeometry relative="1" as="geometry" />
        </mxCell>
        <mxCell id="RKgv_uAVDBzMmzX2CUga-41" value="" style="endArrow=block;rounded=1;html=1;" edge="1" parent="1" source="RKgv_uAVDBzMmzX2CUga-31" target="RKgv_uAVDBzMmzX2CUga-32">
          <mxGeometry relative="1" as="geometry" />
        </mxCell>
        <mxCell id="RKgv_uAVDBzMmzX2CUga-42" value="" style="endArrow=block;rounded=1;html=1;" edge="1" parent="1" source="RKgv_uAVDBzMmzX2CUga-32" target="RKgv_uAVDBzMmzX2CUga-33">
          <mxGeometry relative="1" as="geometry" />
        </mxCell>
        <mxCell id="RKgv_uAVDBzMmzX2CUga-43" value="" style="endArrow=block;rounded=1;html=1;" edge="1" parent="1" source="RKgv_uAVDBzMmzX2CUga-33" target="RKgv_uAVDBzMmzX2CUga-30">
          <mxGeometry relative="1" as="geometry" />
        </mxCell>
      </root>
    </mxGraphModel>
  </diagram>
</mxfile>
